<?xml version="1.0" encoding="utf-8"?>
<!-- Generator: Adobe Illustrator 21.1.0, SVG Export Plug-In . SVG Version: 6.00 Build 0)  -->
<svg version="1.1" id="Capa_1" xmlns="http://www.w3.org/2000/svg" xmlns:xlink="http://www.w3.org/1999/xlink" x="0px" y="0px"
	 viewBox="0 0 256 256" style="enable-background:new 0 0 256 256;" xml:space="preserve">
<style type="text/css">
	.st0{fill:#DBDBDB;}
	.st1{fill:#181523;}
</style>
<title>003</title>
<rect class="st0" width="256" height="256"/>
<circle class="st0" cx="128" cy="128" r="128"/>
<ellipse class="st1" cx="128.3" cy="111.6" rx="49.8" ry="69"/>
<path class="st1" d="M127.5,176.2c-41.7,0-78.9,10-103.7,25.7c40.8,57.7,120.6,71.5,178.3,30.7c11.7-8.2,21.9-18.4,30.2-30
	C207.5,186.5,169.8,176.2,127.5,176.2z"/>
<path class="st1" d="M111.3,128h34c5.3,0,9.6,4.3,9.6,9.6v62.1c0,5.3-4.3,9.6-9.6,9.6h-34c-5.3,0-9.6-4.3-9.6-9.6v-62.1
	C101.6,132.3,105.9,128,111.3,128z"/>
<path class="st1" d="M86.3,115.6c1.5,11.1-1,20.6-5.5,21.4s-9.4-7.6-10.8-18.6s1-20.6,5.5-21.4S84.8,104.5,86.3,115.6z"/>
<path class="st1" d="M170.2,115.6c-1.5,11.1,1,20.6,5.5,21.4s9.4-7.6,10.9-18.6s-1-20.6-5.5-21.4S171.7,104.5,170.2,115.6z"/>
<path class="st1" d="M80.2,108.9l-5-33.1c-0.6-4-1.2-8.2,0.3-12s5.7-6.8,9.5-5.4c-1.5-7.7,7-13.4,14.4-15.9
	c12.4-4.3,25.7-6.5,38.7-4.8s25.7,7.4,34.5,17.2c2.9,3,5.1,6.6,6.5,10.5c2.6,7.6,0.9,15.8-0.7,23.7l-3.9,18.6
	c-0.2,1.5-0.7,2.8-1.6,4c-1.5,1.7-4.1,1.8-6.5,1.8l-74.1,0.2c-4.6,0-10.7-1.1-11.3-5.7"/>
<path class="st1" d="M256,246.8c-44.5-70.7-137.9-91.9-208.6-47.4C28.2,211.5,12.1,227.7,0,246.8v9.2h256V246.8z"/>
</svg>
