<svg xmlns="http://www.w3.org/2000/svg" viewBox="0 0 116.3 31.78"><defs><style>.cls-1,.cls-2{fill:#ff8a15;}.cls-2{fill-rule:evenodd;}</style></defs><title>logo-naranja</title><g id="Capa_2" data-name="Capa 2"><g id="Capa_1-2" data-name="Capa 1"><polygon class="cls-1" points="6.69 24.86 11.87 24.86 12.76 20.17 7.58 20.17 6.69 24.86"/><polygon class="cls-1" points="0.89 12.83 0 17.52 13.18 17.52 14.07 12.83 0.89 12.83"/><path class="cls-2" d="M56.77,15.6a10.16,10.16,0,0,0-1.07-6.85Q53.65,5.27,49,5.27a10.73,10.73,0,0,0-7.52,2.83,11.86,11.86,0,0,0-3.75,7.26q-.68,4.56,1.49,7.3T46,25.46q6.87,0,10-6.47H51.26a3.62,3.62,0,0,1-1.9,1.85,5.81,5.81,0,0,1-2.58.65q-4.49,0-4-4.84H56.6c.07-.37.13-.72.18-1.06m-13.5-2.32a5,5,0,0,1,5-4.09q3.46,0,3.57,4.09Z"/><polygon class="cls-2" points="89.11 0 88.25 5.73 92.12 5.73 91.59 9.27 87.72 9.27 85.38 24.93 80.11 24.93 82.46 9.27 79.27 9.27 79.8 5.73 82.99 5.73 83.85 0 89.11 0"/><path class="cls-2" d="M57.85,24.93,60.72,5.8h5l-.4,2.67h.12a7.63,7.63,0,0,1,6.35-3.14q3.87,0,5.18,2,1.18,1.84.59,5.82L75.79,24.93H70.54l1.62-10.78q.71-4.7-2.66-4.7-4.05,0-4.88,5.49l-1.5,10Z"/><path class="cls-1" d="M106.79,5.73l-.27,1.82a6.42,6.42,0,0,0-5-2.29A10.73,10.73,0,0,0,94,8.09a11.85,11.85,0,0,0-3.75,7.26q-.68,4.55,1.49,7.3t6.76,2.81a8.86,8.86,0,0,0,5.7-2.23l-.25,1.7h4.5l2.88-19.19Zm-7.9,15.51c-2.89,0-4.84-2.64-4.36-5.89s3.23-5.89,6.12-5.89,4.84,2.64,4.36,5.89-3.23,5.89-6.12,5.89"/><path class="cls-2" d="M29.35,5.7,19,5.66,17.21,17.52h5.28l1.11-7.37,3.29,0c2.92,0,5.13,1.2,4.54,5.11s-3.13,5.1-6.05,5.11H16.78L15.07,31.78h5.28l1-6.86h5.13c5.5,0,9.28-4.32,10.08-9.62s-1.74-9.6-7.23-9.62"/><path class="cls-1" d="M112.67,6.75a1.81,1.81,0,1,1,1.81,1.81,1.81,1.81,0,0,1-1.81-1.81m.24,0a1.57,1.57,0,1,0,1.57-1.57,1.58,1.58,0,0,0-1.57,1.57m1.53.22h-.38V7.8h-.27V5.72h.85a.63.63,0,0,1,.66.63.61.61,0,0,1-.53.62l.56.83H115Zm-.38-1v.77h.57a.37.37,0,0,0,.38-.38.37.37,0,0,0-.38-.39Z"/></g></g></svg>