<svg id="Capa_1" data-name="Capa 1" xmlns="http://www.w3.org/2000/svg" viewBox="0 0 1280 720"><defs><style>.cls-1{fill:#ff8a15;}.cls-2,.cls-3{fill:#fff;}.cls-3{fill-rule:evenodd;}</style></defs><title>meta-image</title><rect class="cls-1" width="1280" height="720"/><polygon class="cls-2" points="401.69 401.99 425.68 401.99 429.79 380.24 405.8 380.24 401.69 401.99"/><polygon class="cls-2" points="374.83 346.24 370.71 367.99 431.74 367.99 435.86 346.24 374.83 346.24"/><path class="cls-3" d="M633.64,359.07q2.8-18.65-4.94-31.74-9.54-16.1-31.11-16.1-20.52,0-34.82,13.09t-17.38,33.62q-3.16,21.1,6.89,33.8,10.39,13,31.29,13,31.83,0,46.11-29.94H608.12q-2,5.17-8.82,8.57a26.93,26.93,0,0,1-11.95,3q-20.8,0-18.58-22.41h64c.32-1.69.59-3.32.83-4.89m-62.52-10.74A23,23,0,0,1,594.3,329.4q16,0,16.55,18.93Z"/><polygon class="cls-3" points="783.41 286.84 779.43 313.4 797.32 313.4 794.86 329.78 776.97 329.78 766.1 402.29 741.7 402.29 752.58 329.78 737.79 329.78 740.25 313.4 755.04 313.4 759.02 286.84 783.41 286.84"/><path class="cls-3" d="M638.64,402.28l13.28-88.58H675l-1.86,12.39h.56q11.19-14.54,29.4-14.55,17.92,0,24,9.48,5.47,8.54,2.72,26.93l-8.15,54.33H697.38l7.49-49.92q3.27-21.77-12.31-21.77-18.76,0-22.58,25.43L663,402.28Z"/><path class="cls-2" d="M865.26,313.4,864,321.82c-5.94-6.6-13.28-10.59-23.24-10.59q-20.54,0-34.83,13.09t-17.38,33.62q-3.16,21.09,6.89,33.8,10.39,13,31.3,13c10.41,0,18.35-4,26.38-10.32l-1.18,7.88h20.83l13.33-88.89Zm-36.6,71.84c-13.4,0-22.44-12.2-20.18-27.26s15-27.26,28.35-27.26S859.27,342.93,857,358s-15,27.26-28.35,27.26"/><path class="cls-3" d="M506.65,313.23l-48-.17L450.4,368h24.45L480,333.85l15.25.09c13.52.05,23.74,5.57,21,23.67s-14.49,23.62-28,23.66H472.86v-.07H448.42L440.5,434h24.45l4.76-31.75h23.76c25.47-.09,43-20,46.67-44.53s-8-44.44-33.49-44.53"/><path class="cls-2" d="M892.5,318.12a8.4,8.4,0,1,1,8.4,8.4,8.38,8.38,0,0,1-8.4-8.4m1.11,0a7.27,7.27,0,1,0,7.29-7.25,7.3,7.3,0,0,0-7.29,7.25m7.09,1H899V323H897.7v-9.63h3.92a2.9,2.9,0,0,1,3,2.93,2.82,2.82,0,0,1-2.46,2.85l2.58,3.85h-1.59ZM899,314.43V318h2.66a1.71,1.71,0,0,0,1.74-1.74,1.73,1.73,0,0,0-1.74-1.82Z"/></svg>