<svg xmlns="http://www.w3.org/2000/svg" viewBox="0 0 17.04 22.76"><defs><style>.cls-1{fill:#db9600;stroke:#000;stroke-miterlimit:10;}.cls-2{fill:none;}.cls-3{fill:#fff;}</style></defs><title>pin-location</title><g id="Capa_2" data-name="Capa 2"><g id="Capa_1-2" data-name="Capa 1"><path class="cls-1" d="M8.52,21.85s8-7.59,8-13.35a8,8,0,0,0-16,0C.51,14.26,8.52,21.85,8.52,21.85Z"/><path d="M14.44,12.73a27.3,27.3,0,0,1-2.78,4.36,44.72,44.72,0,0,1-3.13,3.65,44.71,44.71,0,0,1-3.13-3.65A27.3,27.3,0,0,1,2.6,12.73,9.83,9.83,0,0,1,1.42,8.56a7.1,7.1,0,1,1,14.2,0A9.85,9.85,0,0,1,14.44,12.73Zm-5.92,10S17,14.68,17,8.56a8.52,8.52,0,0,0-17,0C0,14.68,8.52,22.76,8.52,22.76Z"/><line class="cls-2" x1="8.52" y1="0.03" x2="8.52" y2="22.76"/><circle class="cls-3" cx="8.52" cy="8.56" r="2.81"/><path d="M8.52,11A2.49,2.49,0,1,1,11,8.56,2.49,2.49,0,0,1,8.52,11Zm0,1.24A3.73,3.73,0,1,0,4.79,8.56,3.73,3.73,0,0,0,8.52,12.29Z"/></g></g></svg>