<svg xmlns="http://www.w3.org/2000/svg" viewBox="0 0 24.26 24.08"><title>ubicacion-icon4</title><g id="Capa_2" data-name="Capa 2"><g id="Capa_1-2" data-name="Capa 1"><path d="M8.67,20.61c0,1.92-1.94,3.47-4.33,3.47S0,22.53,0,20.61s1.94-3.47,4.33-3.47S8.67,18.7,8.67,20.61Zm15.6-3.47c0,1.92-1.94,3.47-4.33,3.47s-4.33-1.55-4.33-3.47,1.94-3.47,4.33-3.47S24.26,15.23,24.26,17.15Z"/><path d="M22.53,17.15V1.55h1.73v15.6ZM8.67,3.28V20.61H6.93V3.28Z"/><path d="M6.93,3.12A1.73,1.73,0,0,1,8.49,1.4L22.36,0a1.73,1.73,0,0,1,1.91,1.72V3.28L6.93,5Z"/></g></g></svg>