<svg xmlns="http://www.w3.org/2000/svg" viewBox="0 0 28.43 28.43"><defs><style>.cls-1{stroke:#fff;stroke-miterlimit:10;stroke-width:0.25px;}</style></defs><title>ubicacion-icon1</title><g id="Capa_2" data-name="Capa 2"><g id="Capa_1-2" data-name="Capa 1"><path class="cls-1" d="M.13,1A.88.88,0,0,1,1,.13H27.43a.88.88,0,0,1,.88.88V6.29a.88.88,0,0,1-.88.88H24.79v3.52h2.64a.88.88,0,0,1,.88.88v5.28a.88.88,0,0,1-.88.88H24.79v3.52h2.64a.88.88,0,0,1,.88.88v5.28a.88.88,0,0,1-.88.88H1a.88.88,0,0,1-.88-.88V22.14A.88.88,0,0,1,1,21.26H3.65V17.74H1a.88.88,0,0,1-.88-.88V11.57A.88.88,0,0,1,1,10.69H3.65V7.17H1a.88.88,0,0,1-.88-.88ZM5.41,7.17v3.52h7.93V7.17Zm9.69,0v3.52H23V7.17ZM5.41,17.74v3.52h7.93V17.74Zm9.69,0v3.52H23V17.74ZM1.89,1.89V5.41H8.05V1.89Zm7.93,0V5.41h8.81V1.89Zm10.57,0V5.41h6.17V1.89ZM1.89,12.46V16H8.05V12.46Zm7.93,0V16h8.81V12.46Zm10.57,0V16h6.17V12.46ZM1.89,23v3.52H8.05V23Zm7.93,0v3.52h8.81V23Zm10.57,0v3.52h6.17V23Z"/></g></g></svg>