<svg xmlns="http://www.w3.org/2000/svg" viewBox="0 0 28.18 21.14"><title>ubicacion-icon2</title><g id="Capa_2" data-name="Capa 2"><g id="Capa_1-2" data-name="Capa 1"><path d="M26.42,21.14a1.73,1.73,0,0,0,1.76-1.76c0-1.76-1.76-7-8.81-7s-8.81,5.28-8.81,7a1.73,1.73,0,0,0,1.76,1.76ZM12.37,19.38h0a5.41,5.41,0,0,1,1.34-3c1-1.14,2.68-2.25,5.71-2.25s4.73,1.11,5.71,2.25a5.42,5.42,0,0,1,1.34,3H12.37Zm7-10.57a3.52,3.52,0,1,0-3.52-3.52A3.52,3.52,0,0,0,19.38,8.81Zm5.28-3.52A5.28,5.28,0,1,1,19.38,0,5.28,5.28,0,0,1,24.66,5.28ZM12.22,12.82a10.36,10.36,0,0,0-2.17-.44q-.62-.06-1.24-.06c-7,0-8.81,5.28-8.81,7a1.56,1.56,0,0,0,1.76,1.76H9.19a3.94,3.94,0,0,1-.38-1.76,8.08,8.08,0,0,1,1.92-5.12A9.32,9.32,0,0,1,12.22,12.82ZM8.67,14.09A9.68,9.68,0,0,0,7,19.38H1.76a5.4,5.4,0,0,1,1.34-3,7,7,0,0,1,5.57-2.25Zm-6-7.93a5.28,5.28,0,1,1,5.28,5.28A5.28,5.28,0,0,1,2.64,6.17ZM7.93,2.64a3.52,3.52,0,1,0,3.52,3.52A3.52,3.52,0,0,0,7.93,2.64Z"/></g></g></svg>