<svg xmlns="http://www.w3.org/2000/svg" viewBox="0 0 26.68 20.01"><title>ubicacion-icon5</title><g id="Capa_2" data-name="Capa 2"><g id="Capa_1-2" data-name="Capa 1"><path d="M25,16.67a1.67,1.67,0,0,1-1.67,1.67h-20a1.67,1.67,0,0,1-1.67-1.67v-10A1.67,1.67,0,0,1,3.33,5h2A5,5,0,0,0,8.82,3.54l1.38-1.38a1.67,1.67,0,0,1,1.18-.49h3.91a1.67,1.67,0,0,1,1.18.49l1.38,1.38A5,5,0,0,0,21.39,5h2A1.67,1.67,0,0,1,25,6.67ZM3.33,3.33A3.33,3.33,0,0,0,0,6.67v10A3.33,3.33,0,0,0,3.33,20h20a3.33,3.33,0,0,0,3.33-3.33v-10a3.33,3.33,0,0,0-3.33-3.33h-2a3.33,3.33,0,0,1-2.36-1L17.65,1a3.33,3.33,0,0,0-2.36-1H11.39A3.33,3.33,0,0,0,9,1L7.65,2.36a3.33,3.33,0,0,1-2.36,1Z"/><path d="M13.34,15a4.17,4.17,0,1,1,4.17-4.17A4.17,4.17,0,0,1,13.34,15Zm0,1.67A5.84,5.84,0,1,0,7.5,10.84,5.84,5.84,0,0,0,13.34,16.67ZM5,7.5a.83.83,0,1,1-.83-.83A.83.83,0,0,1,5,7.5Z"/></g></g></svg>